<?xml version="1.0" encoding="utf-8"?>
<svg
	version="1.1"
	xmlns="http://www.w3.org/2000/svg"
	xmlns:xlink="http://www.w3.org/1999/xlink"
	x="0%" y="0%"
	width="100%" height="100%"
	viewBox="0 0 24.0 24.0"
	enable-background="new 0 0 24.0 24.0"
	xml:space="preserve">
	<path
		fill="#EE4266"
		stroke="#FFFFFF"
		fill-opacity="1.000"
		stroke-opacity="1.000"
		fill-rule="nonzero"
		stroke-width="0.0"
		stroke-linejoin="round"
		stroke-linecap="square"
		d="M5.69,2.09L12.00,5.24L18.31,2.09L18.31,20.11L14.70,21.91L14.70,7.50L12.00,8.85L9.30,7.50L9.30,21.91L5.69,20.11L5.69,2.09z"/>
	<path
		fill="#000000"
		stroke="#FFFFFF"
		fill-opacity="0.502"
		stroke-opacity="1.000"
		fill-rule="nonzero"
		stroke-width="0.0"
		stroke-linejoin="round"
		stroke-linecap="square"
		d="M5.69,9.45L9.30,11.25L9.30,13.95L5.69,12.15L5.69,9.45z"/>
	<path
		fill="#000000"
		stroke="#FFFFFF"
		fill-opacity="0.502"
		stroke-opacity="1.000"
		fill-rule="nonzero"
		stroke-width="0.0"
		stroke-linejoin="round"
		stroke-linecap="square"
		d="M18.31,9.45L14.70,11.25L14.70,13.95L18.31,12.15L18.31,9.45z"/>
	<path
		fill="#FFD23F"
		stroke="#FFFFFF"
		fill-opacity="1.000"
		stroke-opacity="1.000"
		fill-rule="nonzero"
		stroke-width="0.0"
		stroke-linejoin="round"
		stroke-linecap="square"
		d="M1.19,4.79L12.00,10.20L22.81,4.79L22.81,17.40L19.21,19.21L19.21,10.20L12.00,13.80L4.79,10.20L4.79,19.21L1.19,17.40L1.19,4.79z"/>
</svg>