<?xml version="1.0" encoding="utf-8"?>
<!-- Generator: Adobe Illustrator 22.1.0, SVG Export Plug-In . SVG Version: 6.00 Build 0)  -->
<svg version="1.1" xmlns="http://www.w3.org/2000/svg" xmlns:xlink="http://www.w3.org/1999/xlink" x="0px" y="0px"
	 viewBox="0 0 2272 1872" style="enable-background:new 0 0 2272 1872;" xml:space="preserve">
<style type="text/css">
	.st0{fill:#FFFFFF;stroke:#2D3E51;stroke-miterlimit:10;}
	.st1{fill:#E2E1FF;}
	.st2{opacity:0.67;fill:#BCC7CB;}
	.st3{fill:#C5C5EA;}
	.st4{fill:#2D3E51;}
	.st5{fill:#8681BD;}
	.st6{fill:#440235;}
	.st7{fill:#706FA5;}
	.st8{fill:#E5CFA8;}
	.st9{fill:#FFEECB;}
	.st10{fill:#C1AB85;}
	.st11{fill:#EF5EA2;}
	.st12{fill:#515184;}
	.st13{fill:#BA4C47;}
	.st14{fill:#F3776B;}
	.st15{fill:#89ACD9;}
	.st16{fill:#AED5FF;}
	.st17{fill:#D1544E;}
	.st18{fill:#C94F8C;}
	.st19{fill:#FFB2AE;}
	.st20{fill:#49647C;}
	.st21{fill:#FFFFFF;}
</style>
<g id="Background">
	<g id="Layer_1_1_">
	</g>
	<g id="Layer_2">
	</g>
	<g id="Layer_1_2_">
	</g>
	<g id="Layer_2_1_">
	</g>
</g>
<g id="object">
	<g>
		<g>
			<rect x="0" class="st0" width="2272" height="1872"/>
		</g>
	</g>
	<g>
		<path class="st1" d="M1794,510.7H508c-181.4,0-328.5,147.1-328.5,328.5v0c0,181.4,147.1,328.5,328.5,328.5H1794
			c181.4,0,328.5-147.1,328.5-328.5v0C2122.4,657.7,1975.4,510.7,1794,510.7z"/>
		<path class="st2" d="M841.7,760.9c-4.8,0-4.8,7.4,0,7.4C846.5,768.3,846.5,760.9,841.7,760.9z"/>
		<path class="st2" d="M1282.3,433.9c-6.3,0-6.3,9.8,0,9.8C1288.5,443.7,1288.5,433.9,1282.3,433.9z"/>
		<path class="st2" d="M1528.1,781.9c-17,21.3-34.1,42.6-51.1,63.9c-1.4,1.8,1.1,4.3,2.5,2.5c17-21.3,34.1-42.6,51.1-63.9
			C1532,782.6,1529.5,780.1,1528.1,781.9z"/>
		<g>
			<ellipse class="st1" cx="1146" cy="1471.8" rx="931.5" ry="64"/>
			<ellipse class="st3" cx="686.7" cy="1461.3" rx="425.6" ry="29.2"/>
			<ellipse class="st3" cx="1298.9" cy="1470.2" rx="425.6" ry="29.2"/>
			<ellipse class="st3" cx="789.3" cy="1500.2" rx="212.8" ry="20.5"/>
			<ellipse class="st3" cx="1496.8" cy="1499.4" rx="212.8" ry="20.5"/>
			<ellipse class="st3" cx="1680.8" cy="1448.7" rx="212.8" ry="20.5"/>
			<g>
				<g>
					<g>
						<path class="st4" d="M1427,927.4l272.9,412.8l-26.5,31.3c0,0-137.6-155.6-160-190.5c-22.4-34.8-163.6-197.2-163.6-197.2
							L1427,927.4z"/>
						<g>
							<path class="st5" d="M1630.6,1269.3c-7.8,5.2-30.3,6.5-39.7,7.3l64.4,84.2c0,0,116-89.5,115.1-95.6
								c-0.9-6.2-103,23.6-103,23.6s-10.5-19-26-37.2C1637.5,1256.6,1635.8,1265.7,1630.6,1269.3z"/>
							<polygon class="st6" points="1769.1,1312.6 1763.6,1316.8 1738.1,1282 1743.7,1277.8 							"/>
							<polygon class="st6" points="1695.6,1367.7 1690,1371.9 1654.3,1325.4 1659.9,1321.2 							"/>
							<polygon class="st6" points="1652.1,1354 1661.1,1366.6 1774.2,1275.3 1770.4,1265.1 							"/>
							<path class="st7" d="M1660.1,1294c-4.2,6.2-7.3,13.2-9.1,20.4c-3.2,12.5-2.6,25.4-0.7,38.3l5,8c0,0,116-89.5,115.1-95.6
								c-0.9-6.2-108.9,32-108.9,32S1661,1296,1660.1,1294z"/>
							<path class="st6" d="M1656.8,1269.6c-3.6,1.3-6.9,3.9-10.2,5.9c-3.2,1.8-7.2,3.4-9.6,6.2c-1,1.2-0.2,3.1,1.4,3.1
								c3.8,0,7.5-2.3,10.8-3.9c3.6-1.8,7.8-3.4,10.7-6.2C1662.3,1272.6,1659.7,1268.6,1656.8,1269.6z"/>
							<path class="st6" d="M1670.7,1275.9c-3.9,1.4-7.8,3.3-11.5,5.1c-3.6,1.7-8.3,3.4-10.8,6.7c-0.3,0.4-0.5,0.9-0.6,1.5
								c-1.5,1-2.9,2.2-4.1,3.5c-0.8,0.9-0.2,2.7,1.2,2.6c1.9-0.2,3.7-0.8,5.5-1.5c0.3,0,0.5,0.1,0.8,0.1c0,0.3,0.1,0.6,0.1,0.9
								c-0.6-0.5-1.8-0.6-2.4,0.3c-2.7,4-5.9,7.4-8,11.8c-1.9,3.9-3.1,8-3.4,12.4c-0.4,5.8,1.4,20,10.5,17.6c3.9-1,5.2-5.1,6.3-8.5
								c1.5-4.5,2.7-9.1,3.4-13.7c0.4-2.4,0.6-4.9,0.8-7.3c1.9-1.7,3.8-3.4,5.7-5c1.8,6.5,1.4,13.7,0.1,20.4
								c-2.2,11.1-7.7,21.1-12,31.4c-4.3,10.3-7.3,20.9-6.2,32.2c1.1,10.9,5.3,20.8,13,28.7c1.7,1.8,4.6-0.7,3.3-2.7
								c-5.8-9.2-9.7-20.1-9.5-31.1c0.1-11.7,5.2-22.7,9.8-33.2c5.5-12.6,10.9-28.1,7.6-41.5c1.5,1.6,2.8,3.4,3.9,5.1
								c4.3,6.7,6.3,14.4,7.7,22.2c2.5,14.6,3.2,31.1,14.6,41.9c1.9,1.8,4.9-0.7,3.5-2.9c-9-14.5-9.3-31.3-13.7-47.3
								c-1.7-6.2-4.2-12.2-8.1-17.4c0.3-0.3,0.5-0.7,0.5-1.1c0.3-3.3,0.6-6.6,1.2-9.9c0.3-2.1,1.1-4.2,1-6.3c3.9-1.7,7-4.3,6.5-9
								C1686.4,1273.6,1676.2,1273.9,1670.7,1275.9z M1658.5,1294.2c0.6,0,1.2,0,1.8,0c0.6,0.9,1.2,1.9,1.7,2.8c0,0,0,0-0.1,0.1
								c-1.1-0.3-2.3-0.5-3.4-0.7C1658.5,1295.7,1658.5,1295,1658.5,1294.2z M1665.5,1293.9c-0.4,0.3-0.8,0.6-1.2,0.9
								c-0.2-0.3-0.4-0.5-0.7-0.8C1664.3,1294,1664.9,1294,1665.5,1293.9z M1658.5,1300.8
								C1658.5,1300.8,1658.5,1300.8,1658.5,1300.8c0-0.6,0-1.2,0-1.8c0.4,0.1,0.8,0.2,1.2,0.3
								C1659.3,1299.9,1658.9,1300.3,1658.5,1300.8z M1651.5,1306.8c-0.4,6.9-1.9,13.9-4.2,20.4c-0.2,0.6-0.4,1.6-0.8,2.1
								c-0.2,0.3-0.2,0.4-0.2,0.5c0,0-0.1-0.1-0.3-0.1c-1-0.3-1.6-3.5-1.8-4.3c-0.8-3.3-0.7-6.8-0.2-10.2c1-6.4,3.7-13.5,7.4-18.8
								c0,0.1,0,0.2,0,0.4C1651.7,1300.2,1651.7,1303.5,1651.5,1306.8z M1674.3,1296.9c-0.1,2.4,0.1,4.8,0.4,7.2
								c-2.1-2-4.3-3.6-6.8-4.8c1.7-1.3,3.3-2.6,4.2-4.5c0.3-0.6,0.2-1.3,0-1.8c0.3-0.1,0.7-0.1,1-0.2c0.4-0.1,0.9-0.2,1.3-0.3
								C1674.2,1294,1674.3,1295.5,1674.3,1296.9z M1680.8,1282.7c0.6,3.1-11.6,5.4-13.5,5.9c-3.1,0.8-6.2,1.3-9.4,1.6
								c0,0,0-0.1,0-0.1c2.4-1.1,5.5-2.3,7.4-4.2c0.1-0.1,0.3-0.1,0.4-0.2C1667.4,1285,1680,1278.4,1680.8,1282.7z"/>
							<path class="st6" d="M1686.6,1287.3c-0.3,5.9,0.5,11.5,1.5,17.3c0.3,2.1,3.2,2.1,3.3-0.1c0.3-5.8,1.3-11.6,1.8-17.4
								c0.1-1.3-1.2-2.9-2.5-3.1c-0.3,0-0.6-0.1-0.9-0.1C1687.9,1283.9,1686.7,1285.7,1686.6,1287.3z"/>
							<path class="st6" d="M1702.4,1281c-3.4,6.6-1.1,13.9-0.3,20.9c0.2,1.8,2.9,1.8,2.9-0.1c-0.1-6.8,2.8-13.6,1.4-20.4
								C1706,1279.6,1703.2,1279.5,1702.4,1281z"/>
							<path class="st6" d="M1645.9,1396.8c13.5,1.3,27.1-2.1,38.4-9.6l89.9-59.6c11.5-7.6,19.9-18.9,24-32.1l1-3.4L1645.9,1396.8z"
								/>
						</g>
						<path class="st6" d="M1456,971.2l-29-43.8l-77.2,56.4c0,0,25.9,29.8,57.2,66.6c8.7-12.1,17.4-24.2,25.6-36.7
							C1441.5,1000.2,1449.6,986,1456,971.2z"/>
						<path class="st4" d="M1445,930.9c0,0-182.7,222.3-203.8,221.5c-21.1-0.8-297.7-136.9-297.7-136.9l17.6-25.2l255.6,62.2
							c0,0,121.3-194.4,139.7-195.9C1374.8,855.1,1435.4,907.7,1445,930.9z"/>
					</g>
					<g>
						<path class="st5" d="M950.2,1018.3c4.5-8.3,23.9-19.9,31.8-24.9l-96.2-44.6c0,0-61.2,133.1-57.5,138.2
							c3.7,5,80.3-68.7,80.3-68.7s18.1,12,40.3,20.8C949.9,1032.8,947.1,1023.8,950.2,1018.3z"/>
						<polygon class="st6" points="807.3,1044.3 810.3,1038 849,1057 846,1063.2 						"/>
						<polygon class="st6" points="846.9,961.3 849.8,955 903.1,979.6 900.1,985.9 						"/>
						<polygon class="st6" points="891.7,953.3 877.9,946.3 820.1,1079.7 828.3,1086.9 						"/>
						<path class="st7" d="M912.5,1010.1c0.8-7.5,0.3-15.1-1.4-22.3c-3-12.5-9.5-23.7-17.1-34.2l-8.1-4.8c0,0-61.2,133.1-57.5,138.2
							c3.7,5,81.6-79,81.6-79S910.8,1008.7,912.5,1010.1z"/>
						<path class="st6" d="M926.7,1030.1c2.6-2.9,4.3-6.7,6.3-10c1.9-3.1,4.8-6.3,5.6-9.9c0.4-1.6-1.2-2.9-2.7-2.1
							c-3.3,1.8-5.6,5.5-7.8,8.5c-2.4,3.2-5.3,6.6-6.6,10.5C920.5,1030,924.7,1032.4,926.7,1030.1z"/>
						<path class="st6" d="M911.6,1031c2.8-3.1,5.4-6.5,7.8-9.9c2.3-3.2,5.8-6.9,6.5-10.9c0.1-0.5,0-1.1-0.1-1.6
							c0.9-1.6,1.6-3.3,2-5c0.3-1.2-1.1-2.5-2.2-1.7c-1.6,1-2.9,2.4-4.2,3.9c-0.3,0.1-0.5,0.2-0.7,0.3c-0.2-0.2-0.4-0.5-0.5-0.7
							c0.8,0.2,1.8-0.3,2-1.4c0.6-4.8,1.8-9.3,1.6-14.2c-0.2-4.3-1-8.6-2.7-12.6c-2.3-5.3-10.5-17.1-17.4-10.7
							c-2.9,2.7-2.2,6.9-1.7,10.4c0.7,4.7,1.9,9.3,3.4,13.7c0.8,2.3,1.7,4.6,2.7,6.9c-0.9,2.4-1.8,4.8-2.7,7.1
							c-4.6-4.9-7.6-11.4-9.6-18c-3.2-10.8-2.9-22.2-3.9-33.4c-1-11.1-3.2-21.9-9.5-31.4c-6.1-9.2-14.3-16-24.8-19.4
							c-2.3-0.8-3.8,2.7-1.7,3.9c9.4,5.5,17.9,13.3,22.9,23.1c5.3,10.5,6,22.5,6.8,33.9c0.9,13.7,3.4,29.9,12.6,40.3
							c-2.1-0.7-4.1-1.7-5.8-2.7c-6.9-3.9-12.3-9.8-17.1-16.1c-9-11.7-17.2-26.1-32.4-30.3c-2.5-0.7-4,2.9-1.8,4.2
							c14.7,8.6,22.8,23.4,34.1,35.5c4.4,4.7,9.4,8.9,15.2,11.6c-0.1,0.4-0.1,0.8,0,1.2c1.3,3.1,2.5,6.2,3.6,9.3c0.7,2,1,4.3,2,6
							c-2.7,3.3-4.2,7.1-1.6,11C898.7,1040.4,907.6,1035.4,911.6,1031z M913.9,1009.1c-0.5,0.3-1.1,0.6-1.6,0.9
							c-1-0.5-1.9-1.1-2.8-1.7c0,0,0,0,0-0.1c1.1-0.3,2.2-0.6,3.4-1C913.1,1007.9,913.5,1008.5,913.9,1009.1z M907.7,1012.7
							c0.2-0.4,0.4-0.9,0.6-1.4c0.3,0.1,0.6,0.3,1,0.4C908.8,1012,908.2,1012.3,907.7,1012.7z M910.7,1003.3
							C910.7,1003.4,910.7,1003.4,910.7,1003.3c0.3,0.5,0.5,1,0.8,1.6c-0.4,0.1-0.8,0.2-1.2,0.3
							C910.4,1004.5,910.6,1003.9,910.7,1003.3z M914.2,994.7c-2.8-6.3-4.8-13.2-5.8-20c-0.1-0.6-0.4-1.6-0.2-2.2
							c0.1-0.3,0-0.5,0-0.6c0.1,0,0.1,0,0.3,0c1.1-0.2,3,2.3,3.6,3c2.3,2.6,3.8,5.7,4.9,8.9c2.1,6.1,3,13.7,2.2,20.1
							c-0.1-0.1-0.1-0.2-0.2-0.3C917.1,1000.7,915.6,997.8,914.2,994.7z M898.6,1014.1c-1.1-2.2-2.3-4.2-3.7-6.2
							c2.8,0.8,5.5,1.2,8.2,1.1c-0.9,1.9-1.7,3.9-1.7,5.9c0,0.6,0.4,1.2,0.9,1.6c-0.3,0.2-0.5,0.4-0.8,0.6c-0.3,0.3-0.7,0.6-1,0.9
							C900,1016.7,899.2,1015.3,898.6,1014.1z M899.4,1029.7c-2-2.5,7.7-10.2,9.2-11.5c2.4-2.1,4.9-4,7.6-5.8c0,0,0,0.1,0.1,0.1
							c-1.7,2.1-3.8,4.6-4.6,7.1c-0.1,0.1-0.2,0.3-0.3,0.4C910.2,1021.5,902.2,1033.1,899.4,1029.7z"/>
						<path class="st6" d="M892.1,1028.3c-2.5-5.4-5.8-10-9.4-14.7c-1.3-1.7-3.8-0.4-2.9,1.6c2.4,5.3,4.3,10.9,6.5,16.3
							c0.5,1.2,2.4,2,3.6,1.6c0.3-0.1,0.6-0.2,0.8-0.3C892.6,1031.9,892.8,1029.8,892.1,1028.3z"/>
						<path class="st6" d="M881.1,1041.2c-0.1-7.4-5.5-12.8-9.5-18.6c-1-1.5-3.4-0.2-2.5,1.4c3.2,6,3.8,13.3,8.2,18.7
							C878.5,1044.2,881.1,1043,881.1,1041.2z"/>
						<path class="st6" d="M877.3,912.5c-12.6,5.1-23,14.5-29.6,26.4l-51.9,94.5c-6.6,12.1-8.9,26-6.3,39.5l0.7,3.5L877.3,912.5z"/>
					</g>
				</g>
				<path class="st4" d="M1835.8,726.7c-0.4-5.6-0.3-11.4,6-12.7c4.3-0.9,8.7-1.8,13-2.7c2.4-1.6,5.4-2.2,8.2-2.9
					c3.7-0.8,7.4-1.3,11.1-1.7c7.4-0.6,14.6-0.3,21.8,1.3c2.4,0.5,1.8,4.5-0.7,4.3c-6.5-0.5-13.2-0.7-19.8,0
					c0.3,0.6,0.5,1.2,0.6,1.8c7.7,0.5,15.1,2.2,22.4,4.9c2.7,1,1.5,5.2-1.3,4.4c-6.6-2-13.6-3-20.4-3.1c0,0.3,0,0.6-0.1,0.8
					c-0.1,0.5-0.1,1-0.2,1.6c5.7,1.7,11.1,4.2,16.1,7.4c2.5,1.6,0.2,5.4-2.4,4c-4.7-2.5-9.9-4.4-15.1-5.6c-0.4,1.2-0.8,2.3-1.2,3.4
					c4.5,2.7,8.4,6,12.5,9.3c2.4,1.9,0.1,5.9-2.5,4.1c-4.1-2.9-8.4-5.6-12.9-8c-0.5,0.5-1,0.9-1.6,1.1c-1.7,0.8-3.6,0.6-5.4,0.4
					c-0.7-0.1-1.4-0.2-2.1-0.3c2.1,3.8,4.4,7.5,5.8,11.5c0.4,1-0.4,2.3-1.3,2.8c-1.1,0.6-2.2,0.2-3.1-0.5c-4.1-3.4-7.1-9-9.5-13.7
					c-0.3-0.6-0.6-1.1-0.8-1.7c-3.7-0.8-7.4-1.8-11.1-2.9c-1.7-0.5-3.6-1.2-4.6-2.7C1836.1,730.1,1835.9,728.4,1835.8,726.7z"/>
				<path class="st8" d="M1644.4,699.8c9.2-3.6,192.6-3.8,207.9,15.2c15.3,19,13.4,16.6-8,27.6s-212.1,28.3-212.1,28.3
					S1614.7,711.3,1644.4,699.8z"/>
				<path class="st9" d="M1317.4,905.9c18.6,27.5,45.1,62.3,74.1,85.8c19.1,15.6,45.9,17.6,67.1,5c41.4-24.6,114.2-73.3,149.9-130
					c51.6-81.8,75.8-125.1,75.8-125.1s18-7.6-31.8-39.4c-49.8-31.7-108.2-38.5-129.6-15.3c-19,20.6-107.4,43.5-198.2,137.1
					C1303.2,846.3,1300.1,880.4,1317.4,905.9z"/>
				<path class="st6" d="M1446.7,808.2c11.2-6.3,20-16.1,28-26.1c13.9-17.3,26.2-35.8,36.7-55.4c-23.4,3.2-46.8,5.5-70.4,7
					c-28.8,16.7-62.4,39.2-97.2,71.6c19.2,8.1,40.1,12.4,61,12.3C1419.3,817.5,1434.1,815.3,1446.7,808.2z"/>
				<path class="st9" d="M1545.3,677.3c0,0-292.4-15.4-330.6,16.8c-38.2,32.2-26.8,41.6-6.6,55.3c20.1,13.6,206.3,14,245.1,34.7
					C1492,804.7,1612,720.2,1545.3,677.3z"/>
				<path class="st8" d="M1264.2,729c-3.9,0.1-8.3,0.5-10.7,3.5c-2,2.4-2.1,5.8-2.5,8.9c-0.6,5.5-2.4,10.9-5.1,15.8
					c61.9,7.1,177.6,11,207.3,26.8c17.6,9.4,52-2.9,78-23.2C1444.5,737,1354.1,726.2,1264.2,729z"/>
				<path class="st10" d="M1451.5,894.3c-2.3-4.8-9.6-7.6-13.8-10.6c-5-3.6-9.6-7.5-14-11.8c-8.7-8.4-16-17.7-23.4-27.2
					c-1.6-2-5.2,0.2-4.3,2.5c4.5,11.8,12,22.6,20.8,31.6c4.3,4.5,9,8.5,14,12.4c4.4,3.4,11.1,9.8,17.1,9.3
					C1451.1,900.3,1452.9,897.3,1451.5,894.3z"/>
				<path class="st10" d="M1396.9,890.9c-5.9,0-5.9,9.2,0,9.2C1402.8,900,1402.8,890.9,1396.9,890.9z"/>
				<path class="st10" d="M1675.9,732.2c-9.2,7.6-17.6,16.2-24.6,25.9c-7.1,9.9-13.5,20.2-19.7,30.6c-12,19.9-23.8,39.9-37.6,58.6
					c-27.3,37.1-60.2,70.5-96.7,98.4c-10,7.7-20.4,15-30.9,21.9c-11,7.2-22.6,13.3-33.7,20.3c-5.7,3.6-0.7,11.5,5.2,8.9
					c10.6-4.7,20.6-11.1,30.4-17.2c9.9-6.1,19.6-12.6,29-19.5c18.8-13.8,36.7-28.8,53.4-45.1c33.2-32.4,61.7-69.7,84.4-110.1
					c13.3-23.7,26.7-48.4,44.6-69C1681.7,733.3,1678.4,730.1,1675.9,732.2z"/>
				<path class="st10" d="M1261.5,715.2c-2.8-10.6-9.2-19.7-18.2-26c-2.3-1.6-4.9,1.9-3,3.8c6.9,6.5,11.2,15.1,13.1,24.4
					c0.9,4.5,1,9.2,0.4,13.7c-0.7,4.5-3,8.7-3.4,13.2c-0.4,3.9,5.3,6.1,7.8,3.2c3.8-4.2,4.5-11,4.9-16.4
					C1263.5,725.9,1262.9,720.4,1261.5,715.2z"/>
				<path class="st10" d="M1259.8,686.4c-2.4-1.5-5.2,2-3.1,4c11.6,10.3,16.3,24.7,14.7,40c-0.5,4.9,7.8,6.1,8.7,1.2
					C1283.3,714.1,1274.9,695.8,1259.8,686.4z"/>
				<path class="st6" d="M1528.6,758.5c-10.6,6.1-20.3,13.3-31.5,18.5c-5.5,2.6-11.3,4.6-17.1,6.4c-0.6,0.2-1.2,0.4-1.7,0.6
					c6.4-4.8,12.9-10.8,15.4-18.6c1.1-3.5-3.2-5.2-5.6-3.3c-5.8,4.5-10.1,10.6-15.8,15.3c-5.7,4.7-12.3,8.5-19.1,11.4
					c-3.6,1.6-1,7.3,2.7,6.3c1.1-0.3,2.3-0.7,3.4-1c0.5,0.5,1.2,0.8,2.2,0.7c6.8-0.9,13.5-1.2,20.2-2.7c6.3-1.5,12.5-3.7,18.4-6.2
					c12-5,24.6-11.4,33.4-21.1C1536.2,761.5,1532.5,756.2,1528.6,758.5z"/>
				<path class="st6" d="M1690.1,620c4.8,1.9,9.6,4.8,12.2,9.2c2,3.4,2.7,7.5,3,11.5c1.6,18.8-1.9,37.6-6.3,55.9
					c-2.5,10.3-5.4,20.9-12.4,28.9c-10.4,11.9-28.9,15.2-43.5,9.1c-14.6-6-25-20.4-28-35.9c-3-15.5,0.9-31.9,9.1-45.5
					c5.6-9.3,13-17.3,20.4-25.3C1656.8,614.9,1673.4,613.3,1690.1,620z"/>
				<path class="st11" d="M1669.5,714.8c6.7-1.2,10-8.7,11.7-15.3c2.6-10.4,4.1-21.1,4.3-31.8c0.3-11-1.3-23.3-9.8-30.2
					c-6.4-5.2-15.5-6.1-23.7-4.8c-13,2.1-25.2,9.4-33.1,20c-1.8,2.4-3.5,5.3-3.2,8.3c0.4,3.9,4.1,7.1,3.5,11
					c-0.4,2.4-2.4,4.2-3.8,6.2c-6.1,8.8-0.5,21.8,8.7,27.3c7.6,4.5,16.6,5.4,25.2,5.4C1656.1,710.9,1663.2,715.9,1669.5,714.8z"/>
				<path class="st4" d="M1655.5,636.5c10-4.1,21-6.6,31.5-4.3c2.7,0.6,5.4,1.5,7.2,3.5c1.8,2,2.5,4.8,3,7.5
					c4.6,25.8-1.7,52.4-9.9,77.3c1.5,1.6,3.9-0.6,4.8-2.6c8.5-17.7,12.4-37.2,15.6-56.6c2.4-14.7,3.8-31.4-5.7-42.8
					c-5.1-6.1-12.7-9.7-20-12.9c-6.6-2.9-13.4-5.8-20.5-7.1c-17.6-3.4-35.9,2.2-53.7,0.4c-9.7-1-20.7-3.8-28.2,2.5
					c-2.5,7.3,3.3,14.7,4.1,22.4c0.7,6.4-2.2,12.5-4.4,18.5c-4.6,12.3-6.8,25.7-4.6,38.7c1.2,7.1,7.2,28.2,16.9,28.4
					c7.1,0.2,10.8-20.8,13.9-26.8C1616.4,662,1634.2,645.3,1655.5,636.5z"/>
				<path class="st6" d="M1622.9,636.5c-4.2-4.9-10.9-6.7-16.9-9c-11.7-4.6-22.8-13.8-26.5-25.4c-1.9,7,3.5,14.2,4.3,21.6
					c0.7,6.4-2.2,12.5-4.4,18.5c-4.6,12.3-6.8,25.7-4.6,38.7c1.2,7.1,7.2,28.2,16.9,28.4c7.1,0.2,10.8-20.8,13.9-26.8
					c5.4-10.2,12.6-19.6,21.1-27.4C1627.6,648.2,1627.2,641.5,1622.9,636.5z"/>
				<path class="st8" d="M1699.2,714.1c-51.7,0.2-101.6-90.7-115.4-87.7c-11.9,2.6-39,34.9-49,47.3c-2.4,3-3.1,7.2-1.5,10.8
					c32,74.9,141.3,68.7,141.3,68.7l27.9-31.6C1705.1,718.6,1703.1,714.1,1699.2,714.1z"/>
				<path class="st9" d="M1681.9,714.6c-8.9,10.9-19.9,23.6-21.7,38c-0.2,1.9,2.7,3,3.9,1.6c4.5-5.4,7.1-11.8,10.4-18
					c3.3-6.4,6.9-12.9,10.9-18.9C1686.7,715.2,1683.5,712.6,1681.9,714.6z"/>
				<path class="st4" d="M1242.9,722.2c-1.4-8.3-3.6-16.6-13.2-16.4c-6.6,0.2-13.2,0.4-19.8,0.6c-4-1.4-8.6-1.3-12.9-1.3
					c-5.6,0.1-11.2,0.7-16.7,1.5c-10.9,1.7-21.3,4.7-31.2,9.6c-3.4,1.6-1,7.2,2.6,6c9.3-3.1,19-5.6,28.7-7c-0.2,0.9-0.3,1.8-0.3,2.8
					c-11.1,3.4-21.2,8.5-30.8,15.1c-3.6,2.5-0.4,8.2,3.5,5.9c8.8-5.2,18.7-9.1,28.6-11.7c0.1,0.4,0.3,0.8,0.4,1.2
					c0.3,0.7,0.6,1.5,0.9,2.2c-7.7,4.5-14.6,10.1-20.8,16.5c-3.1,3.3,1.6,7.9,4.9,4.9c6-5.4,12.8-9.9,20-13.5c1,1.5,1.9,3.1,2.9,4.6
					c-5.5,5.6-10.1,11.8-14.9,17.9c-2.8,3.5,2,8.6,5.1,5.1c5-5.6,10.3-11.1,15.9-16.2c0.8,0.5,1.7,0.9,2.7,1.1
					c2.7,0.6,5.5-0.4,8-1.4c1-0.4,2-0.8,2.9-1.2c-1.7,6.2-3.7,12.4-4.4,18.7c-0.2,1.6,1.4,3.3,2.9,3.6c1.8,0.5,3.3-0.4,4.3-1.8
					c4.8-6.4,7.1-15.6,9-23.3c0.2-0.9,0.4-1.8,0.6-2.7c5.1-2.5,10.2-5.2,15.1-8.2c2.3-1.4,4.8-3,5.8-5.5
					C1243.7,727.2,1243.3,724.6,1242.9,722.2z"/>
			</g>
			<g>
				<g>
					<path class="st12" d="M701.8,440.1c-12.1,11.1-16.4,29.3-12.7,45.4s14.7,29.8,28.3,39c20.5,13.8,47.4,17.8,71,10.4
						c12.8-4,24.5-11.1,36.7-16.8c27.3-12.8,57.8-18.7,87.9-17.1c43.4,2.3,87.1,19.9,129.3,9.4c13.6-3.4,26.4-9.6,38.7-16.4
						c18.5-10.3,37.1-23,46.4-42.1c9.3-19.1,5.7-45.8-12.7-56.3c-7.7-4.4-16.8-5.4-25.7-5.3c-32.1,0.3-62.4,14.3-94,20.3
						c-23.5,4.5-47.9,4.5-71.5,0c-24.2-4.6-47.5-13.8-71.9-16.8c-48.3-5.8-97.6,14.4-132.7,47.9C712.3,440.7,708.3,439,701.8,440.1z
						"/>
					<g>
						<path class="st4" d="M689.4,787.5c-6.1-8.9-13.3-17.2-24.1-11.8c-7.5,3.8-15,7.6-22.6,11.5c-5.5,0.5-10.6,3.1-15.5,5.5
							c-6.4,3.2-12.6,6.9-18.5,10.9c-11.7,7.9-22,17.1-30.8,28c-3,3.7,2.8,8.8,6.2,5.5c9.1-8.6,18.9-16.9,29.4-23.7
							c0.3,1.1,0.7,2.3,1.1,3.4c-10.9,10-19.8,21.4-27.3,34.1c-2.8,4.8,4,9.6,7.2,4.9c7.4-10.8,16.6-20.6,26.6-29
							c0.4,0.4,0.7,0.8,1.1,1.2c0.7,0.7,1.4,1.4,2.2,2.1c-6.4,9.4-11.3,19.5-15,30.3c-1.8,5.5,6.2,8.2,8.4,3
							c4-9.4,9.4-18.4,15.7-26.5c1.9,1.3,3.9,2.5,5.9,3.7c-3.3,9.4-5.3,19.1-7.5,28.8c-1.3,5.6,6.9,8.8,8.6,3.1
							c2.7-9.2,5.8-18.4,9.5-27.3c1.2,0.1,2.5,0.1,3.7-0.2c3.4-0.8,6.1-3.4,8.5-6c0.9-1,1.8-1.9,2.7-2.9c1.4,8,2.4,16.3,5.1,24
							c0.7,2,3.4,3,5.3,2.6c2.3-0.4,3.5-2.3,4-4.4c2-10.1-0.3-21.9-2.3-31.8c-0.2-1.2-0.5-2.3-0.7-3.5c4.6-5.7,8.9-11.6,13-17.6
							c1.9-2.9,3.9-6,3.7-9.5C693,792.8,691.2,790,689.4,787.5z"/>
						<path class="st13" d="M975.2,536.4c0,0-316.5,228.4-312.6,243.9c3.9,15.5,22.6,21.4,27.5,25.1c4.9,3.7,236.9-144,316.5-167.6
							C1006.6,637.8,1032.2,557.4,975.2,536.4z"/>
						<path class="st14" d="M987.4,574.3c-5.7,1.4-10.8,4-16.1,6.6c-5.6,2.7-11.2,5.5-16.7,8.4c-10.6,5.6-21.1,11.4-31.5,17.4
							c-21.3,12.1-42.2,24.8-62.8,38c-40.8,26-80.4,53.9-119.5,82.4c-22.2,16.2-44.2,32.8-66.3,49.1c-2.3,1.7,0.6,5,2.9,3.4
							c39.2-28.3,78.6-56.4,118.7-83.6c40.1-27.2,80.6-53.7,122.6-77.7c11.6-6.6,23.3-13.1,35.1-19.4c6.1-3.2,12.3-6.4,18.4-9.7
							c5.9-3.2,12.1-6,17.4-10.2C991.6,577.2,989.9,573.6,987.4,574.3z"/>
					</g>
					<path class="st13" d="M1112.6,611.4c15.1,68.3,27.1,137.4,46.8,204.5c2.7,9.2,5.6,18.8,3.9,28.3c-2.2,12-11.4,21.6-21.4,28.7
						c-28.3,20.2-64.5,26.7-99.3,25.5c-17.5-0.6-37-4.1-47.5-18.2c-5.1-6.9-7.3-15.5-9.2-24c-19.4-90.3-3.8-187.7,42.8-267.5
						c5.1-8.8,10.6-17.4,17.6-24.7c10-10.5,31.8-28.6,45.6-15.6C1105.8,561.4,1108.7,593.9,1112.6,611.4z"/>
					<g>
						<path class="st15" d="M1013.5,895.6l208.8,198.8c0,0,143.6,282.7,150,280.7c6.4-2,167.5-58.7,163.4-66.4
							c-4.1-7.7-131.7-0.7-131.7-0.7s-132.3-312.3-134.8-317.3c-2.5-5-188.7-203-188.7-203S1016.1,850.4,1013.5,895.6z"/>
						<path class="st16" d="M1328.8,1242.9c-10.5-30.4-20.6-60.9-32.1-91c-10.7-28-21.5-55.8-36.3-81.8
							c-14.5-25.5-33.3-47.9-53.1-69.4c-21.1-23-42.9-45.4-64.9-67.5c-24.8-25-50.4-49.3-76.3-73.1c-2.2-2-5.4,1.2-3.3,3.3
							c44.1,42.5,87.3,86.1,129.1,130.9c20.4,21.9,41.8,43.4,57.9,68.8c15.9,25,26.7,53.1,37.6,80.5c13.2,33.3,27,66.4,39.7,99.8
							C1327.4,1244.5,1329.2,1244,1328.8,1242.9z"/>
						<polygon class="st6" points="1372.3,1375.2 1378.7,1383.7 1538.2,1320.3 1535.7,1308.8 						"/>
						<g>
							<polygon class="st6" points="1520.3,1346.2 1513.1,1349.7 1493.8,1308.7 1502.3,1308.1 							"/>
							<polygon class="st6" points="1425.9,1391.9 1418.7,1395.4 1388.8,1335.6 1396,1332.1 							"/>
							<path class="st6" d="M1363.9,1413.7c14.9,4.4,30.8,3.5,45.1-2.4l113.6-47.2c14.5-6,26.5-16.9,33.8-30.7l1.9-3.6
								L1363.9,1413.7z"/>
						</g>
						<path class="st14" d="M1535.7,1308.8c-4.1-7.7-131.7-0.7-131.7-0.7s-11.8-27.9-28.5-67.2c-18.4,14.1-39.9,24.1-62.5,29.2
							c30,57.1,56.6,105.8,59.3,105C1378.7,1373.2,1539.8,1316.6,1535.7,1308.8z"/>
						<path class="st6" d="M1080.4,787.8c0,0-64.4,62.6-67,107.9l56.1,53.4c24.6-32,47.7-65.1,69.2-99.2
							C1106.2,815.2,1080.4,787.8,1080.4,787.8z"/>
						<path class="st15" d="M937.6,806.8L895,1055.3l-321.5,186.4c0,0,116.2,160.5,124.6,159.5s-38.9-148.5-38.9-148.5
							s283.4-107.5,298.3-131.5c14.9-24,122.9-333.3,122.9-333.3L937.6,806.8z"/>
						<path class="st6" d="M1074.6,788.5l-137,18.2l-27.2,158.5C981.5,925.1,1040,862.5,1074.6,788.5z"/>
						<path class="st16" d="M1031.5,805.9c-14.8,42.2-27.5,85.1-40.5,127.9c-6.5,21.4-12.9,42.7-19.4,64.1
							c-6.1,20-11.8,40.2-19.3,59.7c-7.1,18.3-17.2,35-33.3,46.7c-15.9,11.6-34.4,19.3-52,27.7c-40.2,19.2-80.4,38.4-120.6,57.8
							c-44.9,21.7-89.7,43.6-134.5,65.7c-2.8,1.4-0.4,5.6,2.5,4.2c81.8-38.3,163.4-77.2,244.8-116.4c18.4-8.9,37.6-17,54.9-28
							c15.9-10.1,28.5-23.3,37.1-40.1c9-17.7,14.3-37.1,20.2-56c6.7-21.6,13.1-43.2,19.6-64.9c14.7-49,29.9-98.1,42.4-147.7
							C1033.8,805.2,1031.9,804.7,1031.5,805.9z"/>
						<path class="st14" d="M698.1,1212c-6.8-10.8-10.6-23.4-11.2-36.1l-113.4,65.7c0,0,116.2,160.5,124.6,159.5
							s-38.9-148.5-38.9-148.5s22.9-8.7,56-21.7C708.4,1225.7,702.6,1219.3,698.1,1212z"/>
						<polygon class="st6" points="633.9,1397.6 628.4,1389.9 676.5,1356.9 681.9,1364.6 						"/>
						<polygon class="st6" points="562.4,1295.9 557,1288.2 621.2,1241.8 626.7,1249.5 						"/>
						<polygon class="st6" points="582.7,1237.7 565.3,1249.4 684.1,1405.9 698,1401.2 						"/>
						<path class="st17" d="M663.5,1251c-8.3-5.9-17.5-10.4-27.3-13.2c-16.7-4.8-34.3-4.5-51.7-2.5l-11.1,6.4
							c0,0,116.2,160.5,124.6,159.5s-38.9-148.5-38.9-148.5S660.7,1252.1,663.5,1251z"/>
						<path class="st6" d="M696.5,1247.5c-1.7-5-5-9.4-7.6-14c-2.4-4.3-4.3-9.8-8-13.2c-1.6-1.4-4.2-0.4-4.2,1.8
							c-0.1,5.1,2.8,10.3,4.8,14.8c2.2,5,4.3,10.6,7.9,14.8C692.2,1254.7,697.8,1251.4,696.5,1247.5z"/>
						<path class="st6" d="M687.5,1265.9c-1.8-5.4-4.1-10.6-6.5-15.8c-2.2-4.9-4.3-11.4-8.6-14.9c-0.5-0.5-1.2-0.7-2-0.9
							c-1.3-2.1-2.8-4-4.5-5.7c-1.2-1.2-3.7-0.4-3.5,1.5c0.2,2.5,0.9,5,1.8,7.5c-0.1,0.4-0.1,0.7-0.1,1.1c-0.4,0-0.8,0.1-1.2,0.1
							c0.7-0.9,0.9-2.4-0.3-3.2c-5.2-3.9-9.8-8.3-15.6-11.3c-5.3-2.7-10.7-4.5-16.6-5.2c-7.8-0.8-27.1,1-24.2,13.4
							c1.2,5.2,6.7,7.2,11.2,8.9c6,2.3,12.2,4,18.4,5.1c3.3,0.6,6.6,1.1,9.9,1.4c2.2,2.6,4.4,5.2,6.6,7.9
							c-8.9,2.2-18.5,1.4-27.5-0.7c-14.9-3.4-28.2-11.3-41.9-17.5c-13.7-6.2-28-10.8-43.3-9.7c-14.8,1.1-28.4,6.3-39.3,16.4
							c-2.4,2.2,0.7,6.2,3.5,4.6c12.7-7.5,27.6-12.2,42.4-11.6c15.9,0.6,30.4,7.9,44.5,14.6c16.8,8,37.5,15.9,55.8,11.9
							c-2.2,2-4.6,3.7-7,5.1c-9.2,5.6-19.7,8-30.3,9.5c-19.8,2.8-42.2,3-57.2,18c-2.5,2.5,0.7,6.7,3.8,4.9
							c19.9-11.6,42.7-11.3,64.5-16.6c8.5-2,16.7-5.1,23.8-10.2c0.4,0.4,0.9,0.7,1.5,0.8c4.5,0.5,9,1.1,13.4,2
							c2.8,0.5,5.6,1.7,8.4,1.6c2.1,5.3,5.6,9.7,12,9.2C689.9,1287.3,689.9,1273.5,687.5,1265.9z M663.2,1248.7
							c0,0.8-0.1,1.7-0.1,2.5c-1.3,0.8-2.6,1.6-3.9,2.2c0,0,0,0-0.1-0.1c0.4-1.5,0.8-3,1.1-4.6
							C661.2,1248.7,662.2,1248.7,663.2,1248.7z M663.3,1258.3c-0.4-0.6-0.8-1.1-1.2-1.6c0.4-0.3,0.7-0.6,1.1-0.9
							C663.2,1256.6,663.2,1257.5,663.3,1258.3z M654.3,1248.5c0,0,0.1,0,0.1,0c0.7,0,1.5,0,2.3,0.1c-0.1,0.6-0.3,1.1-0.5,1.7
							C655.5,1249.7,654.9,1249.1,654.3,1248.5z M646.4,1238.7c-9.4-0.9-18.7-3.1-27.4-6.5c-0.8-0.3-2.1-0.6-2.7-1.2
							c-0.4-0.3-0.6-0.4-0.7-0.3c0-0.1,0.1-0.2,0.2-0.3c0.5-1.4,4.8-2,5.9-2.2c4.5-0.9,9.2-0.7,13.8,0.2c8.6,1.6,18.1,5.6,25.1,10.8
							c-0.2,0-0.3,0-0.5,0C655.4,1239.3,650.9,1239.2,646.4,1238.7z M658.9,1270c-3.3-0.2-6.5-0.1-9.7,0.2c2.8-2.8,5.1-5.7,6.8-8.9
							c1.6,2.4,3.4,4.6,5.9,5.9c0.8,0.4,1.7,0.4,2.5,0c0.1,0.4,0.1,0.9,0.2,1.3c0.1,0.6,0.2,1.2,0.3,1.8
							C662.9,1270.1,660.8,1270.1,658.9,1270z M677.8,1279.4c-4.2,0.7-6.9-15.9-7.4-18.5c-0.9-4.2-1.5-8.5-1.8-12.8
							c0.1,0,0.1,0,0.2,0c1.4,3.4,2.9,7.5,5.3,10.2c0.1,0.2,0.2,0.4,0.3,0.6C675.3,1261.1,683.7,1278.4,677.8,1279.4z"/>
						<path class="st6" d="M671.3,1287.1c-8-0.7-15.6,0.3-23.5,1.3c-2.8,0.4-2.9,4.2,0,4.5c7.9,0.7,15.7,2.2,23.5,3.1
							c1.8,0.2,3.9-1.5,4.3-3.2c0.1-0.4,0.1-0.8,0.2-1.2C675.9,1289,673.6,1287.3,671.3,1287.1z"/>
						<path class="st6" d="M679.2,1308.7c-8.8-4.9-18.8-2-28.2-1.2c-2.4,0.2-2.5,3.8,0,3.9c9.2,0.2,18.2,4.3,27.5,2.7
							C681.1,1313.6,681.3,1309.8,679.2,1308.7z"/>
						<path class="st6" d="M525.1,1227.6c-2.3,18.2,1.8,36.7,11.4,52.3l76.9,123.9c9.8,15.8,24.8,27.7,42.4,33.7l4.6,1.6
							L525.1,1227.6z"/>
						<path class="st6" d="M1392.1,1255.6c-4.2-2.8-11.3,1.1-15.4,2.8c-5.7,2.3-10.4,5.8-15.8,8.4c-1.8,0.9-0.2,3.6,1.6,2.7
							c5.1-2.4,11.3-3.4,16.8-5c4.3-1.2,11.5-1.4,13.7-5.7C1393.6,1257.6,1393.2,1256.3,1392.1,1255.6z"/>
						<path class="st6" d="M1394.7,1266.2c-4.6-0.5-9.2,2.3-13.2,4.3c-4.3,2.1-8.9,4.1-12.3,7.5c-0.9,0.9-0.3,2.6,1.1,2.6
							c4.8,0,9.5-2,14-3.6c4.3-1.5,9.4-2.8,12.3-6.5C1397.9,1268.8,1397,1266.4,1394.7,1266.2z"/>
						<path class="st6" d="M1400.6,1280.7c-4.2-0.3-7.9,2.3-11.4,4.2c-4,2.3-8.4,4.2-12.3,6.8c-1.5,1-0.5,3.1,1.2,2.8
							c4.8-0.8,9.7-2.6,14.3-4.2c3.8-1.4,7.9-2.6,10.2-6.2C1403.6,1282.7,1402.2,1280.9,1400.6,1280.7z"/>
						<path class="st6" d="M1423.1,1315.9c-0.2-0.5-0.4-1.1-0.6-1.6c0.9-4.1,0.6-8.7,1.3-12.7c0.3-1.5-2-2.8-2.8-1.2
							c-0.8,1.7-1.8,3.4-2.8,5.1c-1.6-2.5-3.6-4.8-6-6.7c0.7-0.7,1.3-1.4,1.9-2.2c1.3-1.7-0.3-4.3-2.4-3.1c-9.6,5.1-18,12.3-27.8,17
							c-1.6,0.8-0.5,3.4,1.2,2.9c3.5-1.1,7-2.3,10.3-3.6c-4.1,4.2-9.7,7.2-14.7,9.4c-8.7,3.9-18,6.1-26.5,10.3
							c-7.5,3.7-14.4,8.7-20.3,14.5c-5.9,5.7-12.4,12.7-13.2,21.3c-0.2,2.1,2.8,4,4.5,2.6c6.8-5.2,10.9-13.4,17.1-19.4
							c6.6-6.3,14.3-11.4,22.6-15.1c8.5-3.7,17.8-6.3,25.3-11.9c0.5-0.4,1-0.8,1.5-1.2c-0.5,1.6-1,3.1-1.4,4.8
							c-1.7,6.7-3.1,16.9,4.3,20.9c9.4,5.1,14.3-4.9,16.2-17c3,3.4,7.5,6.9,11.5,3.9C1427.3,1329.4,1424.7,1320.7,1423.1,1315.9z
							 M1402.6,1310.9c-0.1,4-0.3,7.9-0.7,11.9c-0.3,3.5-0.7,7.1-1.4,10.6c-0.2,1.2-1,5.3-2,4.7c-3.8-2.2-0.6-13.6,0.1-16.5
							c1-4,2.4-8,4.1-11.7C1402.6,1310.1,1402.6,1310.5,1402.6,1310.9z M1415.7,1325.3c-1.5-1.2-2.9-2.7-3.9-4.4
							c0-0.1-0.1-0.1-0.1-0.2c0.1-3.7,0-7.2-0.3-10.4c0.9,1.7,1.8,3.3,2.6,5.1c-0.1,0.4-0.2,0.9-0.2,1.3c-0.2,1.7,0.8,2.8,2.1,3.4
							c0.4,1.2,0.7,2.3,1,3.6C1417.3,1326.1,1418.3,1327.4,1415.7,1325.3z"/>
						<path class="st6" d="M1435.9,1303.7c-0.6-0.7-1.6-0.5-2.2,0c-2.5,2-3,5.9-3.9,8.8c-1.1,3.4-3.4,7.2-3,10.7
							c0.5,4.2,5.8,5,7.4,2c2.3-3.1,2.4-7.3,2.9-11.1C1437.5,1310.7,1438.2,1306.7,1435.9,1303.7z"/>
						<path class="st6" d="M1454.5,1307.5c-0.2-1.5-1-4.8-3.3-4.1c-2.3,0.7-2.7,3.1-3.3,5.1c-0.8,2.8-1.8,5.6-1.9,8.6
							c-0.1,2.6,2.3,4.7,4.7,4.7c2.8,0,4.5-2.2,4.7-4.7C1455.8,1314,1455,1310.5,1454.5,1307.5z"/>
						<path class="st6" d="M1472.1,1313.8c-0.6-3.8-1.2-7.6-3.2-11c-0.7-1.2-2.4-0.8-2.8,0.4c-1.4,3.7-1.4,7.7-1.3,11.6
							c0,3.6-0.3,7.4,2.6,10.1c1.3,1.2,3,0.8,4.1-0.5C1473.8,1321.2,1472.7,1317.3,1472.1,1313.8z"/>
						<path class="st6" d="M921.1,1082.4c-2.1-4.9-8.3-9-12.3-12.5c-4.6-4.1-9.2-8.2-14-12c-1.8-1.4-4,0.1-3.7,1.9
							c-1.5-0.3-3.2,0.5-3.3,2.5c-0.2,5-0.3,9.9-0.5,14.9c-0.2,4.7-0.8,9.3,0.7,13.8c0.8,2.4,4.2,2.4,4.9,0
							c1.4-4.5,0.8-9.1,0.7-13.8l-0.5-14.4c3.7,4.4,7.5,8.6,11.4,12.8c3.8,4.1,7.7,9.6,12.9,11.7
							C920.4,1088.5,922.1,1084.7,921.1,1082.4z"/>
						<path class="st6" d="M1227.1,1054.3c-5.1,6.4-9.5,13.3-12.7,20.8c-0.1-2.4-0.2-4.9-0.2-7.4c0-4.6,0.4-9.4-0.4-13.9
							c-0.5-3.1-4.9-2.6-5.8,0c-2.8,9.1-0.6,20.4,1,29.6c0.3,1.5,1.7,2.2,3,2.1c0.9,0.6,2.4,0.6,3.2-0.5
							c6.4-8.4,12.2-17.1,18.3-25.7C1236.3,1055.5,1230.1,1050.6,1227.1,1054.3z"/>
					</g>
					<path class="st6" d="M1106,656.3c-2.6,37.6-7.3,75.5-1.1,112.6c0.8,4.7,1.7,9.7,0,14.2c-1.4,3.8-4.5,6.7-7.6,9.3
						c-22.9,19.2-53,29.4-82.8,28.2s-59-14-80.2-35c-3.2-3.2-6.5-7.1-6.3-11.6c0.1-2.4,1.1-4.6,2.1-6.7
						c25.6-55.8,51.2-111.6,76.9-167.4c8.8-19.1,18.5-39.3,36.7-49.8c18.8-10.9,46.3-15.6,55.5,8.1
						C1110.8,588.1,1108.1,625,1106,656.3z"/>
					<path class="st11" d="M1098.3,521.2c0,0,13.5-20.1,11.3-38c0,0,16.4,5.7,17.1-1.2c0.7-6.9-8.4-36.4-29.2-45.5
						c-20.8-9.1-82.8-19.3-80,39.1C1017.3,475.6,1064.3,530.5,1098.3,521.2z"/>
					<path class="st18" d="M1082.3,473.2c11.6-6.1,22.8-12.8,33.7-20.2c-4.6-6.9-10.8-13.1-18.5-16.5c-19.1-8.3-72.9-17.6-79.5,26.1
						c1.5-0.4,3.1-0.7,4.7-0.9c0.8-0.1,1.6-0.2,2.3,0.2c1,0.6,1.3,1.9,1.3,3.1c-0.1,3.5-2,6.6-3.1,9.9c-0.7,2-0.9,4.5-0.4,6.5
						c1.2,1.2,2.5,2.6,4.1,4.2c0.6,0.2,1.3,0.4,1.9,0.5C1047.1,489.5,1065.7,481.9,1082.3,473.2z"/>
					<path class="st5" d="M1116,443.5c-23.6,20.3-55.8,26.6-86.6,31.2c3.8-6.4,7.3-13.1,10.3-19.9c-7.3,7.5-22.8,8.3-33.3,7.1
						c-41-4.6-98-45.5-139.2-46.9c-83.9-2.9-148.4,79.6-173,60.2c-8.1-6.4-3.6-20.5,0.9-29.7c4.5-9.2,12-16.6,19.9-23.3
						c57.4-48.5,140.6-62,212.3-39.7c19.5,6,39.1,14.6,59.4,12.4c11.9-1.3,23-6.3,34.3-10c16.3-5.3,33.4-7.9,50.5-7.7
						c12.3,0.1,24.9,1.7,35.8,7.3s20.2,15.5,22.5,27.6C1132.2,424.2,1125.3,435.4,1116,443.5z"/>
					<path class="st14" d="M1109.9,534.6c0,0-16.7,289.5-192.2,388.5c0,0-175.4-33.2-176.4-90.3s53.7-16.7,89.8-72.7
						c36.1-56,107.6-239.5,154.6-261.3C1032.7,477,1055.3,505.7,1109.9,534.6z"/>
					<path class="st6" d="M952,682.5c30.8-26.1,54.5-62.3,59.3-102.4c-33.6,6.7-67.1,14.5-100.2,23.3
						c-24.6,47.3-48.6,100-67.2,134.6c0.4-0.1,0.8-0.2,1.2-0.4C883.5,725.4,921.2,708.6,952,682.5z"/>
					<path class="st19" d="M764.7,798c-14.1,3.9-23.8,10.5-23.4,34.9c1,57,176.4,90.3,176.4,90.3c18-10.1,34.3-22.3,49.1-35.9
						c-65.5-2.4-130.2-25-182.7-64.3C775.6,816.5,766.6,807.9,764.7,798z"/>
					<path class="st4" d="M585.3,734.7c-5.3-12-12-23.7-26.3-19.6c-9.9,2.8-19.8,5.7-29.7,8.6c-6.7-0.6-13.5,1.3-19.9,3.1
						c-8.4,2.3-16.6,5.4-24.7,8.8c-15.8,6.8-30.3,15.4-43.4,26.6c-4.4,3.8,1.3,11.2,6.2,8.1c12.8-8.3,26.5-15.9,40.7-21.7
						c0.1,1.4,0.3,2.9,0.6,4.3c-15.4,9.5-28.7,21.1-40.6,34.7c-4.5,5.1,2.6,12.4,7.5,7.5c11.3-11.3,24.6-20.9,38.6-28.7
						c0.3,0.6,0.7,1.1,1.1,1.7c0.7,1,1.4,2,2.2,3c-9.9,9.8-18.1,20.8-24.9,33c-3.5,6.1,5.5,11.2,9.4,5.5
						c6.9-10.4,15.5-19.9,24.9-28.2c2,2,4.1,3.9,6.2,5.8c-6.2,10.5-10.7,21.7-15.6,32.9c-2.8,6.4,6.3,12.2,9.7,5.6
						c5.3-10.4,11.2-20.8,17.7-30.6c1.5,0.5,3,0.7,4.5,0.6c4.3-0.2,8.1-2.7,11.6-5.2c1.3-0.9,2.6-1.9,4-2.9
						c-0.1,10-0.8,20.1,0.6,29.9c0.4,2.5,3.4,4.4,5.8,4.4c2.8,0,4.7-1.9,5.8-4.4c4.8-11.6,4.7-26.3,4.5-38.7c0-1.5-0.1-2.9-0.1-4.4
						c6.8-5.8,13.3-11.8,19.6-18.2c3-3,6-6.4,6.6-10.5C588.4,741.9,586.9,738.1,585.3,734.7z"/>
					<path class="st14" d="M985.7,498.9c0,0-432.1,201.7-431,221.1c1.1,19.5,22.2,30.9,27.3,36.4s317.2-118.5,418.2-128.7
						C1000.2,627.7,1049.3,537.1,985.7,498.9z"/>
					<path class="st6" d="M1011.1,565.3c9.4,11.1,17.5,23.6,29.2,32.2c16.6,12.2,37.6,14.9,58.2,18.7c9.5-48.2,11.4-81.7,11.4-81.7
						c-54.5-28.9-77.2-57.6-124.2-35.7c-8.2,3.8-34.2,8.4-43.6,20.5C961.9,529.8,996.7,548.2,1011.1,565.3z"/>
					<path class="st6" d="M1011.1,592.5c-1.8,9.3-6,17.7-11.5,25.3c-0.4,0.6-0.9,1.2-1.4,1.8c1.8-5.7,3.1-11.5,4-17.2
						c0.5-3.1-4-4.6-4.9-1.3c-3.5,13.6-9.8,25.2-16.8,37.3c-1.4,2.4-0.1,4.5,1.7,5.3c0.5,0.3,1,0.4,1.6,0.3c1.2,0,2.5-0.5,3.4-1.7
						c0.1-0.1,0.2-0.3,0.3-0.4c3.1-2.5,5.6-5.9,8.2-8.9c3.4-4,6.7-8.3,9.5-12.8c5.3-8.3,8.9-17.4,10.2-27.1
						C1015.7,590.6,1011.6,590.1,1011.1,592.5z"/>
					<path class="st4" d="M1019.6,493.7c-50.1-23.7-109.3-19.4-162.5-3.8c-53.1,15.6-102.5,41.8-154.2,61.6
						c-50.1,19.2-103.3,32.6-157,31.5c-48.4-0.9-95.7-13.4-143.5-20.8c-47.8-7.4-98.4-9.4-142.9,9.7c-11.8,42.3-1.8,78.8,19.4,117.3
						c40.2-39,101.2-46.7,157.1-43.6s112,14.8,167.3,6.5c66.7-10,125.3-47.8,184.7-79.7c59.4-32,126.6-59.4,192.7-46.1
						c11.3,2.3,22.8,5.7,34,3.1C1026,526.8,1023.4,504.6,1019.6,493.7z"/>
					<path class="st6" d="M1019.6,493.7c-22.5-10.6-46.8-15.6-71.6-16.5c-0.2,4.1-1.7,8.2-4,11.6c-3.9,5.6-9.7,9.6-15.7,12.8
						c-4.2,2.2-8.8,4.4-11.1,8.6c-1.2,2.2-1.6,4.7-1.8,7.1c-0.2,2.6-0.1,5.2,0.2,7.7c21.6-3.1,43.4-3.1,65,1.2
						c11.3,2.3,22.8,5.7,34,3.1C1026,526.8,1023.4,504.6,1019.6,493.7z"/>
					<path class="st4" d="M1022.7,466.3c-14.9-5.6-31-11.3-46.5-7.5c-9.4,2.3-19,12.1-14.4,20.6c0.9,1.6,2.3,3.1,2.8,4.9
						c3,10.5-22.2,12.7-18.8,23c42.9,26.5,85.8,53,128.7,79.6c11.7,7.2,24,14.7,37.7,15.6c4.8,0.3,9.9-0.3,13.8-3.1
						c6-4.4,7.4-12.6,7.9-20c1.5-21.3,4-64.3-16.4-77.4C1091.1,485,1052.1,477.3,1022.7,466.3z"/>
					<path class="st20" d="M1119.8,567.6c-5.2-4.5-12.3-7.3-18.4-10.3c-6.6-3.3-13.3-6.4-20-9.4c-13-5.9-26-11.6-39-17.5
						c-7.9-3.6-15.8-7.4-23.7-11.3c-1.9-2.1-4.1-4-6-6.2c-3.2-3.6-6.2-7.5-9.1-11.3c-5.6-7.3-10.9-14.7-16-22.4
						c-0.8-1.2-2.6-0.1-1.9,1.1c5,8.4,10.2,16.5,16,24.3c2,2.7,4.2,6.1,6.7,9.2c-14.6-7.8-28.7-16.5-41.7-26.6c-1.3-1-3,0.7-1.8,1.8
						c22.3,18.8,47.5,32.5,73.7,44.9c13.3,6.3,26.8,12.3,40.1,18.6c6.4,3,12.8,6.1,19.2,9.2c6.4,3.2,12.8,7.5,19.7,9.6
						C1119.7,571.8,1121.5,569,1119.8,567.6z"/>
					<path class="st20" d="M269,578.7c-12.8,0.3-25.8,4.9-37.3,10.1c-2,0.9-0.5,4.5,1.5,3.6c11.9-4.9,23.9-7,36.3-9.6
						C271.9,582.4,271.4,578.7,269,578.7z"/>
					<path class="st20" d="M269,594.2c-12.3,0.8-24.5,5.4-35.8,10.2c-1.9,0.8-0.5,4,1.4,3.3c11.4-4.4,23.1-6.4,35-9.3
						C271.9,597.8,271.5,594.1,269,594.2z"/>
					<path class="st20" d="M272.9,610.4c-12,0-24.7,5.5-35.4,10.4c-2,0.9-0.5,4.4,1.5,3.6c5.5-2.3,11.2-4.2,17-5.8
						c5.8-1.6,11.8-2.3,17.4-4.2C275.5,613.7,275.2,610.4,272.9,610.4z"/>
					<path class="st20" d="M274.8,626.7c-9.9,1.1-19.7,5.2-28.6,9.6c-2.3,1.2-0.3,4.5,2,3.4c8.8-4.1,17.9-6.2,27.1-9.1
						C277.4,630,277.2,626.4,274.8,626.7z"/>
					<path class="st20" d="M279.6,643.8c-8.9,1.4-17.4,6.2-24.7,11.3c-2.2,1.5-0.2,5.1,2.1,3.6c7.5-4.9,15.4-7.7,23.6-11.1
						C283,646.7,282.2,643.4,279.6,643.8z"/>
					<path class="st20" d="M279.5,660.2c-8,4.5-15.4,9.8-23.1,14.8c-2.1,1.4-0.2,4.6,2,3.3c7.9-4.7,15.8-9.1,23.4-14.3
						C284.1,662.5,282,658.8,279.5,660.2z"/>
					<path class="st20" d="M897.4,515.3c-18.7,0.2-37.1,4.7-54.9,10.2c-18,5.6-35.4,12.7-52.5,20.4c-35,15.8-68.8,34.4-104.4,48.9
						c-19.9,8.1-40.4,14.9-61.6,19.1c-2.3,0.4-1.3,3.9,0.9,3.4c75.2-14.6,138.9-60.3,210.7-84.6c20.3-6.9,41-10.9,62.1-14.5
						C899.6,518,899.1,515.3,897.4,515.3z"/>
					<path class="st20" d="M899.1,503.9c-4.4-0.1-8.8-0.1-13.2-0.1c-3,0-3,4.7,0,4.7c4.4,0,8.8-0.1,13.2-0.1
						C901.9,508.2,902,503.9,899.1,503.9z"/>
					<path class="st19" d="M991.6,547c-7.2,0.4-13.9,2.4-20.8,4.2c-7.4,1.9-14.7,4-21.9,6.3c-14,4.3-27.9,8.9-41.8,13.6
						c-28.3,9.7-56.3,20.1-84,31.2c-54.9,21.9-108.8,46.2-162.2,71.5c-30.4,14.3-60.5,29.2-90.8,43.8c-3.2,1.5-0.4,6.2,2.8,4.7
						c53.5-25,107.3-49.7,161.5-73.1c54.3-23.4,109-45.9,164.9-65.2c15.5-5.3,31-10.4,46.6-15.2c8.1-2.5,16.2-4.9,24.3-7.5
						c7.8-2.5,15.9-4.4,23.2-8.2C996.1,551.6,994.8,546.9,991.6,547z"/>
				</g>
				<path class="st21" d="M641.5,1444.7c-9.6-6-20.8-8.6-32.1-7.6c-26.2,2.3-52.8-21.8-81-22.4c-4.3-0.1-9,0.5-11.4,5.7
					c-1.4,3-1.4,6.5-0.4,9.7c1.9,5.4,6.3,9.5,10.6,13.3c-18.7-10.1-39.3-16.8-60.4-19.4c-2-0.3-4.1,0-6,0.9
					c-9.1,4.4-2.8,17.4,4.1,24.3c-14.1-13.9-36.7-18.4-55.1-11.1c2.3,9.8,8.4,18.6,16.9,24c-48.4,0.2-96.8,5.2-144.1,15
					c107.7,18.6,217.5-12.9,326.7-11.8c17.8,0.2,28.3,0.6,47,0c2.3-0.1,4.4-1.6,4.9-3.8c0.6-2.5-1.2-3.9-2.9-5.1
					C652.6,1452.2,647.2,1448.2,641.5,1444.7z"/>
				<path class="st21" d="M1346.9,1435.4c-9.6-6-20.8-8.6-32.1-7.6c-26.2,2.3-52.8-21.8-81-22.4c-4.3-0.1-9,0.5-11.4,5.7
					c-1.4,3-1.4,6.5-0.4,9.7c1.9,5.4,6.3,9.5,10.6,13.3c-18.7-10.1-39.3-16.8-60.4-19.4c-2-0.3-4.1,0-6,0.9
					c-9.1,4.4-2.8,17.4,4.1,24.3c-14.1-13.9-36.7-18.4-55.1-11.1c2.3,9.8,8.4,18.6,16.9,24c-48.4,0.2-96.8,5.2-144.1,15
					c107.7,18.6,217.5-12.9,326.7-11.8c17.8,0.2,28.3,0.6,47,0c2.3-0.1,4.4-1.6,4.9-3.8c0.6-2.5-1.2-3.9-2.9-5.1
					C1358,1442.9,1352.5,1439,1346.9,1435.4z"/>
			</g>
		</g>
		<path class="st21" d="M817.5,1447.2c-9.8,2.1-19.3,5.7-28.8,8.8c-3.1,1-1.8,5.9,1.3,4.9c2.3-0.7,4.5-1.4,6.8-2.1
			c0.2,2.9,2.1,5.6,5.8,5.6c5.3,0,7-5.5,5.1-9.1c3.8-1.3,7.6-2.7,11.3-4.3C821.1,1449.9,819.5,1446.8,817.5,1447.2z"/>
		<path class="st21" d="M803.9,1475c-10.9,2.7-21.6,6.3-32.3,9.7c-2.9,0.9-1.7,5.5,1.3,4.6c10.8-3.2,21.7-6.1,32.3-9.9
			C807.9,1478.4,806.8,1474.2,803.9,1475z"/>
		<path class="st21" d="M869.3,1487.7c-4.4,0.6-8.9,1.2-13.3,1.7c-4.4,0.6-3.6,6.7,0.8,6c4.4-0.7,8.9-1.4,13.3-2.1
			C873.3,1492.9,872.5,1487.3,869.3,1487.7z"/>
		<path class="st21" d="M1189.4,1496.1c-10.8-0.2-21.8,2.1-32.5,3.5l-34.2,4.7c-22.5,3.1-45.1,6.2-67.6,9.2c-4.2,0.6-2.4,7,1.8,6.4
			c22.2-3.1,44.5-6.1,66.7-9.2l32.5-4.5c11.3-1.5,23.1-2.3,34-5.6C1192.6,1500,1192.1,1496.2,1189.4,1496.1z"/>
		<path class="st21" d="M1322.7,1485.1c-4.7,0-4.7,7.2,0,7.2C1327.4,1492.3,1327.4,1485.1,1322.7,1485.1z"/>
		<path class="st21" d="M1383.7,1480c-6.3,0-6.3,9.7,0,9.7C1390,1489.8,1390,1480,1383.7,1480z"/>
		<path class="st21" d="M1471.3,1470.4c-6.4,0-6.4,9.9,0,9.9C1477.7,1480.3,1477.7,1470.4,1471.3,1470.4z"/>
		<path class="st21" d="M1553.2,1447.4c-6.5,0-6.6,10.2,0,10.2C1559.8,1457.6,1559.8,1447.4,1553.2,1447.4z"/>
		<path class="st21" d="M1618,1501.2c-1.1,0-1.1,1.7,0,1.7C1619.1,1502.9,1619.1,1501.2,1618,1501.2z"/>
		<path class="st21" d="M1693.3,1489.6c-1-0.9-2.4-1.5-3.8-1.5c-1,0-2.2,0.3-3,0.8c-0.6,0.4-1.1,0.8-1.6,1.2
			c-0.8,0.7-1.7,1.4-2.5,2.1c-1.1,0.9-1.7,2.8-1.7,4.2c0,1.4,0.6,3.2,1.7,4.2c1.1,1,2.6,1.8,4.2,1.7c1.5-0.1,3.2-0.5,4.2-1.7
			c0.7-0.8,1.4-1.7,2.1-2.5c0.4-0.5,1-1.1,1.2-1.6c0.5-0.9,0.8-1.9,0.8-2.9C1694.9,1492.1,1694.4,1490.5,1693.3,1489.6z"/>
		<path class="st21" d="M1848.6,1474.8c-0.3-0.8-0.7-1.5-1.3-2c-1.2-1.1-2.8-1.9-4.5-1.9c-1.7,0.1-3.3,0.6-4.5,1.9
			c-0.6,0.6-1.3,1.3-1.9,1.9c-1.1,1.2-1.8,2.8-1.8,4.5c0,1.5,0.7,3.4,1.8,4.5c1.2,1.1,2.8,1.9,4.5,1.8c1.7-0.1,3.2-0.7,4.5-1.8
			c0.6-0.6,1.3-1.3,1.9-1.9c1.2-1.1,1.9-2.9,1.9-4.5C1849.2,1476.4,1849,1475.6,1848.6,1474.8z"/>
		<path class="st21" d="M655.9,1465.4c-1.9,0.2-4,0.3-5.9,0.8c-1.8,0.5-3.5,1.1-5.2,1.7c-3.2,1.1-5.1,4.4-3.7,7.7
			c1.4,3.3,5,4.2,8.1,2.7c1.6-0.8,3.4-1.5,4.9-2.3c1.7-0.9,3.2-2.2,4.7-3.4C661.7,1470.4,659.4,1465.1,655.9,1465.4z"/>
		<path class="st21" d="M454.3,1080.5c-0.1-1.4-1.2-2.7-2.6-2.6c-1.5,0.1-2.5,1.1-2.6,2.6c0,0.9-0.1,1.8-0.1,2.7
			c-0.1,1.4,1.3,2.8,2.7,2.7c1.4-0.1,2.8-1.2,2.7-2.7C454.3,1082.3,454.3,1081.4,454.3,1080.5z"/>
		<path class="st21" d="M553.8,1000.3c-2.1-0.6-4,0.7-4.7,2.6c-1,2.7-1.9,5.4-2.9,8.2c-1.7,4.7,6,6.9,7.5,2.1
			c0.9-2.7,1.7-5.5,2.6-8.2C557.1,1003,555.7,1000.8,553.8,1000.3z"/>
		<path class="st21" d="M610.2,954.6c-1.5,0.1-2.8,1.2-2.8,2.8c0,0.9,0,1.8,0,2.7c0,1.4,1.3,2.8,2.8,2.8c1.5-0.1,2.7-1.2,2.8-2.8
			c0-0.9,0-1.8,0-2.7C613,956,611.7,954.6,610.2,954.6z"/>
		<path class="st21" d="M670.3,921c-4.8,0-4.8,7.4,0,7.4C675.1,928.4,675.1,921,670.3,921z"/>
		<path class="st21" d="M274,900.4c-0.7,0-1.3,0.1-1.9,0.4c-0.5,0.2-0.9,0.7-1.3,1.1c-0.6,0.5-1.1,1-1.7,1.5c-1.2,1.1-1.2,3.3,0,4.3
			c1.2,1.1,3.2,1.3,4.3,0c0.5-0.6,1-1.1,1.5-1.7c0.3-0.3,0.6-0.7,0.9-1c0.5-0.6,0.7-1.4,0.6-2.2C276.4,901.4,275.3,900.4,274,900.4z
			"/>
		<path class="st21" d="M341.6,982.1c-0.2-2.6-3.8-2.6-4,0c-0.2,1.8,0,3.7,0,5.5c0,2.6,4.1,2.7,4.1,0
			C341.6,985.7,341.8,983.9,341.6,982.1z"/>
		<path class="st21" d="M497.1,1096.9c-0.1-2.2-3.3-2.2-3.4,0c-0.2,2.7,0,5.5,0,8.2c0,2.2,3.4,2.2,3.4,0
			C497.1,1102.4,497.3,1099.6,497.1,1096.9z"/>
		<path class="st21" d="M610.2,1089.6c-2.3,0-2.3,3.6,0,3.6C612.5,1093.2,612.5,1089.6,610.2,1089.6z"/>
		<path class="st21" d="M707.3,1068.1c-1-1-2.7-1.8-4.2-1.7c-1.5,0.1-3.1,0.6-4.2,1.7c-1.1,1.2-1.7,2.6-1.7,4.2v2.7
			c0,1.5,0.7,3.1,1.7,4.2c1,1,2.7,1.8,4.2,1.7c1.5-0.1,3.1-0.6,4.2-1.7c1.1-1.2,1.7-2.6,1.7-4.2v-2.7
			C709,1070.8,708.4,1069.2,707.3,1068.1z"/>
		<path class="st21" d="M1651.7,988.7c-0.8,0-1.6,0.7-1.6,1.6v2.7c0,0.8,0.7,1.6,1.6,1.6c0.8,0,1.6-0.7,1.6-1.6v-2.7
			C1653.3,989.4,1652.6,988.7,1651.7,988.7z"/>
		<path class="st21" d="M1700.8,946.5v8.2c0,3.7,5.8,3.7,5.8,0v-8.2C1706.6,942.8,1700.8,942.8,1700.8,946.5z"/>
		<path class="st21" d="M1764.3,885.2c-1.3,2.8-2.3,5.7-3.3,8.6c-1.1,3,4,4.5,4.9,1.3c0.8-2.8,1.7-5.5,2.2-8.3
			C1768.5,884.7,1765.3,882.9,1764.3,885.2z"/>
		<path class="st21" d="M1938.8,777.2c-3.3,0-3.3,5.1,0,5.1C1942.1,782.3,1942.1,777.2,1938.8,777.2z"/>
		<path class="st21" d="M2023.5,677.2c-5.4,0-5.4,8.4,0,8.4C2028.9,685.6,2028.9,677.2,2023.5,677.2z"/>
		<path class="st21" d="M1990.7,1009.9c-2.9,0-2.9,4.5,0,4.5C1993.6,1014.4,1993.6,1009.9,1990.7,1009.9z"/>
		<path class="st21" d="M1859.5,1044.4c-4.3,0-4.3,6.6,0,6.6C1863.7,1051,1863.8,1044.4,1859.5,1044.4z"/>
		<path class="st21" d="M1728.1,954.9c-1.4-1.3-3.6-1.4-5.1,0l-2.7,2.7c-1.3,1.3-1.4,3.7,0,5.1c1.4,1.3,3.6,1.4,5.1,0
			c0.9-0.9,1.8-1.8,2.7-2.7C1729.4,958.7,1729.5,956.2,1728.1,954.9z"/>
		<path class="st21" d="M1807.5,893.1c-1.9,0-1.9,3,0,3C1809.5,896.1,1809.5,893.1,1807.5,893.1z"/>
		<path class="st21" d="M1944.2,708.7c-7.1,0-7.1,11,0,11C1951.3,719.7,1951.3,708.7,1944.2,708.7z"/>
		<path class="st21" d="M1867.7,575.6c-5.9,0-5.9,9.2,0,9.2C1873.6,584.8,1873.6,575.6,1867.7,575.6z"/>
		<path class="st21" d="M1797.8,562.2c-2.8-0.8-5.1,1.2-5.6,3.8c0,0,0,0.1,0,0.1c0,0,0-0.1,0-0.1c0,0,0,0,0,0c0,0.1-0.1,0.2-0.1,0.3
			c0,0,0,0,0,0c-0.2,0-0.4,0,0,0c-3.2-0.6-4.7,3.2-2.1,5.1c1.8,1.3,3.9,1.3,5.9,0.8c2-0.1,3.8-1.6,4.7-3.4
			C1801.8,566.3,1800.7,563,1797.8,562.2z"/>
		<path class="st21" d="M1502.9,576.1c-0.9-0.8-1.7-1.5-2.8-2c-1-0.5-2-0.9-3-1.4c-1.3-0.6-2.8-0.4-3.6,0.9
			c-0.7,1.2-0.3,2.9,0.9,3.6c1,0.5,1.9,1,2.9,1.6c1.1,0.6,2.1,0.9,3.3,1.1c1,0.2,2.1-0.1,2.6-1.1
			C1503.7,578.1,1503.6,576.8,1502.9,576.1z"/>
		<path class="st21" d="M1429.9,629.8c-0.7-0.6-1.4-0.9-2.4-1c-0.9-0.1-1.8-0.2-2.7-0.3c-0.9-0.1-2,0.5-2.6,1.1
			c-0.6,0.6-1.1,1.7-1.1,2.6c0,1,0.4,1.9,1.1,2.6c0.7,0.6,1.7,1.2,2.6,1.1c0.9-0.1,1.8-0.2,2.7-0.3c0.9-0.1,1.7-0.3,2.4-1
			c0.6-0.6,1-1.5,1-2.4C1430.9,631.3,1430.6,630.4,1429.9,629.8z"/>
		<path class="st21" d="M864.4,783.1c-2.8,0-2.8,4.3,0,4.3C867.2,787.4,867.2,783.1,864.4,783.1z"/>
		<path class="st21" d="M920.5,764.3c-1-0.6-2.5-0.3-3.1,0.8c-0.9,1.8-1.9,3.6-2.8,5.4c-0.6,1.1-0.3,2.6,0.8,3.2
			c1,0.6,2.7,0.3,3.2-0.8c0.9-1.8,1.8-3.7,2.7-5.5C921.9,766.3,921.6,764.9,920.5,764.3z"/>
		<path class="st21" d="M970.7,737.4c-0.3,0.1-0.6,0.2-0.9,0.3c-0.6,0.2-0.9,0.5-1.4,0.8c-0.6,0.5-1.1,1-1.6,1.5
			c-0.7,0.8-0.9,2.2,0,3c0.9,0.8,2.1,0.8,3,0c0.5-0.5,1-1,1.5-1.6c0.3-0.4,0.6-0.8,0.8-1.3c0.1-0.3,0.2-0.7,0.3-1
			C972.8,738.1,971.7,737.1,970.7,737.4z"/>
		<path class="st21" d="M1036.7,665.2c-1.3,0.1-2.5,1.1-2.5,2.5v2.7c0,1.3,1.1,2.5,2.5,2.5c1.3-0.1,2.5-1.1,2.5-2.5v-2.7
			C1039.1,666.4,1038,665.2,1036.7,665.2z"/>
		<path class="st21" d="M1233.2,990.3c0-0.9-0.2-1.7-0.8-2.4c-0.5-0.7-1.3-1.2-2.3-1.3c-0.4-0.1-0.7-0.2-1.1-0.3
			c-6.7-2.1-6.7,10.1,0,8c0.4-0.1,0.7-0.2,1.1-0.3c1-0.1,1.7-0.6,2.2-1.3C1233,992,1233.2,991.1,1233.2,990.3z"/>
		<path class="st21" d="M1252,1061.3c-0.1-1.1-0.9-2.2-2.1-2.1c-1.2,0.1-2.1,0.9-2.1,2.1c-0.1,0.9-0.1,1.8-0.2,2.7
			c-0.1,1.2,1.1,2.4,2.4,2.4c1.2-0.1,2.5-1,2.4-2.4C1252.2,1063.2,1252.1,1062.3,1252,1061.3z"/>
		<path class="st21" d="M1277.2,1149.2c-3.1,0-3.1,4.8,0,4.8C1280.3,1153.9,1280.3,1149.2,1277.2,1149.2z"/>
		<path class="st21" d="M1308.6,1210.6c-1.4-5.4-9.6-3.1-8.3,2.3c1,4.3,1.5,8.7,4.6,12c1.6,1.8,4.7,0.9,5.3-1.4
			C1311.4,1219.1,1309.7,1214.9,1308.6,1210.6z"/>
		<path class="st21" d="M1160,1256.7c-0.9-1.6-3-2.1-4.6-1.2c-1.1,0.6-2.3,1.2-3.2,2.1c-0.9,0.8-1.5,1.6-2.2,2.6
			c-0.9,1.3,0.3,2.8,1.7,2.9c1.2,0.1,2.4,0,3.6-0.3c1.2-0.3,2.4-1,3.6-1.5C1160.4,1260.6,1160.8,1258.2,1160,1256.7z"/>
		<path class="st21" d="M807,1121.6c-3.4,0-3.4,5.3,0,5.3C810.4,1126.9,810.4,1121.6,807,1121.6z"/>
		<path class="st21" d="M1504.1,1091.8c-3,0-3,4.7,0,4.7C1507.1,1096.5,1507.1,1091.8,1504.1,1091.8z"/>
		<path class="st21" d="M1468.6,987.6c-3.4,0-3.4,5.3,0,5.3C1472,992.9,1472,987.6,1468.6,987.6z"/>
		<path class="st21" d="M1400.2,939.1c-6.1,0-6.1,9.4,0,9.4C1406.3,948.5,1406.3,939.1,1400.2,939.1z"/>
		<path class="st21" d="M1370.2,920.4c-5.5,0-5.5,8.5,0,8.5C1375.6,928.9,1375.6,920.4,1370.2,920.4z"/>
		<path class="st21" d="M777,810.7c-2.4,0-2.4,3.7,0,3.7C779.3,814.4,779.3,810.7,777,810.7z"/>
		<path class="st21" d="M443.5,836.6c-4.3,0-4.3,6.7,0,6.7C447.8,843.3,447.8,836.6,443.5,836.6z"/>
		<path class="st21" d="M380.6,820.8c-3.5,0-3.5,5.5,0,5.5C384.1,826.2,384.1,820.8,380.6,820.8z"/>
		<path class="st21" d="M927.3,641.2c-2.4,0-2.4,3.7,0,3.7C929.7,644.9,929.7,641.2,927.3,641.2z"/>
		<path class="st21" d="M1102.3,542.1c-6.9,0-6.9,10.7,0,10.7C1109.1,552.8,1109.1,542.1,1102.3,542.1z"/>
	</g>
</g>
</svg>
